<svg width="42" height="42" viewBox="0 0 42 42" fill="none" xmlns="http://www.w3.org/2000/svg">
<path d="M0 21C0 9.40202 9.40202 0 21 0C32.598 0 42 9.40202 42 21C42 32.598 32.598 42 21 42C9.40202 42 0 32.598 0 21Z" fill="black" fill-opacity="0.04"/>
<path d="M28.9445 22.7381C27.9413 23.2738 26.7954 23.5775 25.5787 23.5775C21.6265 23.5775 18.4227 20.3736 18.4227 16.4215C18.4227 15.2047 18.7263 14.0589 19.262 13.0557C15.7046 13.8894 13.0557 17.0823 13.0557 20.894C13.0557 25.3402 16.66 28.9445 21.1062 28.9445C24.9178 28.9445 28.1108 26.2955 28.9445 22.7381Z" stroke="#141414" stroke-width="1.50526" stroke-linecap="round" stroke-linejoin="round"/>
</svg>
