<svg width="80" height="34" viewBox="0 0 80 34" fill="none" xmlns="http://www.w3.org/2000/svg">
<g opacity="0.3">
<path d="M26.6686 31.995C39.5532 31.995 49.9982 27.2202 49.9982 21.33C49.9982 15.4399 39.5532 10.665 26.6686 10.665C13.7839 10.665 3.33887 15.4399 3.33887 21.33C3.33887 27.2202 13.7839 31.995 26.6686 31.995Z" fill="white" fill-opacity="0.75"/>
<path d="M49.9984 31.995C64.7237 31.995 76.6609 26.0264 76.6609 18.6638C76.6609 11.3011 64.7237 5.33252 49.9984 5.33252C35.2731 5.33252 23.3359 11.3011 23.3359 18.6638C23.3359 26.0264 35.2731 31.995 49.9984 31.995Z" fill="white" fill-opacity="0.75"/>
<path d="M36.6677 26.6625C46.9754 26.6625 55.3314 21.2908 55.3314 14.6644C55.3314 8.038 46.9754 2.66626 36.6677 2.66626C26.36 2.66626 18.0039 8.038 18.0039 14.6644C18.0039 21.2908 26.36 26.6625 36.6677 26.6625Z" fill="white" fill-opacity="0.75"/>
</g>
</svg>
